<svg width="58" height="56" fill="none" xmlns="http://www.w3.org/2000/svg"><g clip-path="url('#clip0_1_14')" fill="#070708"><path d="M29.015 1.653C14.465 1.653 2.668 13.45 2.668 28c0 14.551 11.796 26.348 26.347 26.348 14.55 0 26.347-11.797 26.347-26.348 0-14.55-11.795-26.347-26.347-26.347Zm0-1.653c15.44 0 28 12.56 28 28s-12.56 28-28 28-28-12.56-28-28 12.561-28 28-28Z"/><path d="M28.958 53.032h.148a24.852 24.852 0 0 0 14.573-4.75.444.444 0 0 0 .044-.029l.108-.079c4.166-3.072 7.228-7.253 8.879-12.11a.437.437 0 0 0 .027-.066l.085-.261A25.049 25.049 0 0 0 54.047 28c0-.758-.038-1.551-.114-2.356l-.051-.552a.461.461 0 0 0-.03-.126 24.762 24.762 0 0 0-2.68-8.603.466.466 0 0 0-.04-.096l-.2-.364a25.008 25.008 0 0 0-6.09-7.294l-.006-.004-.003-.004a25.135 25.135 0 0 0-4.618-2.985.4.4 0 0 0-.062-.037l-.166-.082a24.873 24.873 0 0 0-7.13-2.231l-.045-.009-.104-.016-.032-.003A24.907 24.907 0 0 0 30.312 3h-.005c-.404-.02-.803-.03-1.197-.031l-.037-.002h-.115A26.65 26.65 0 0 0 27.734 3c-.773.04-1.56.117-2.353.232l-.03.004-.133.02a24.872 24.872 0 0 0-7.158 2.232l-.182.09a.575.575 0 0 0-.064.037A25.046 25.046 0 0 0 7.1 15.904l-.2.363a.432.432 0 0 0-.04.097 24.723 24.723 0 0 0-2.682 8.607.456.456 0 0 0-.028.12l-.051.553a25.014 25.014 0 0 0 1.107 10.08l.088.273a.482.482 0 0 0 .029.07 24.927 24.927 0 0 0 8.84 12.078l.02.016.126.092.043.029a24.84 24.84 0 0 0 14.574 4.748h.033v.002Zm14.084-5.558a23.796 23.796 0 0 1-13.512 4.523v-7.412l.28-.005c.092 0 .184-.002.276-.005.18-.006.36-.017.539-.027l.256-.013c.08-.003.16-.008.242-.013.214-.015.428-.035.642-.054l.386-.033c.265-.028.528-.061.79-.096l.23-.027c.672-.093 1.348-.21 2.01-.35l.064-.013c.33-.072.627-.138.921-.21l.382-.101c.198-.052.395-.103.59-.158.082-.023.162-.048.243-.073l.28-.085a13.945 13.945 0 0 0 .71-.227l.282-.098c.13-.044.26-.088.388-.135.101-.037.202-.075.301-.115l.29-.111c.112-.043.225-.086.336-.131.111-.045.22-.093.33-.14l.278-.12a13.247 13.247 0 0 0 .646-.292l.258-.122c.1-.046.197-.093.295-.14.114-.057.227-.116.34-.176l.25-.13c.096-.05.192-.098.286-.15.115-.063.229-.127.342-.192l.246-.14c.09-.05.18-.102.27-.155l.07-.042-.011.43c-.005.186-.01.373-.018.564-.012.27-.03.545-.048.821l-.035.593c-.01.174-.02.35-.033.528-.033.449-.077.905-.12 1.361l-.03.33c-.008.1-.016.202-.027.305a74.12 74.12 0 0 1-.213 1.836h-.002Zm-14.543-2.889v7.412a23.8 23.8 0 0 1-13.512-4.523c-.08-.618-.15-1.231-.213-1.837-.011-.101-.019-.202-.028-.302l-.021-.247c-.048-.504-.094-.979-.129-1.446-.013-.177-.023-.352-.032-.526l-.037-.603c-.017-.273-.035-.546-.046-.814-.008-.19-.013-.379-.018-.566l-.011-.427.07.042c.09.053.18.103.27.155l.244.139a16.019 16.019 0 0 0 .635.345l.239.124c.116.06.231.122.347.179l.292.14.271.127c.11.053.22.106.331.155.104.047.208.091.312.135l.28.12c.106.047.213.093.32.137.111.046.225.089.338.132l.286.11c.1.039.201.079.303.116.128.046.256.09.386.134l.287.097a13.68 13.68 0 0 0 .716.23l.272.082c.08.024.16.05.242.073.186.053.374.102.562.15l.41.11c.294.072.59.139.888.202l.096.022c.662.14 1.338.257 2.01.35l.231.027c.262.035.525.067.789.095l.317.027c.267.025.488.046.712.06.079.006.16.01.24.014l.257.013c.179.01.359.02.539.027.091.003.184.004.276.005l.28.005Zm23.31-9.065A23.86 23.86 0 0 1 44.18 46.6l.039-.33a27.808 27.808 0 0 0 .141-1.406l.054-.614a28.633 28.633 0 0 0 .112-1.602l.023-.413c.014-.265.029-.53.039-.79.018-.473.034-.943.04-1.405.214-.144.422-.292.63-.442l.192-.133c.069-.046.138-.094.204-.143.394-.29.782-.596 1.154-.91.083-.07.164-.143.243-.215l.264-.236c.197-.173.394-.345.582-.524.095-.092.186-.186.277-.28l.284-.288a9.103 9.103 0 0 0 .734-.788l.271-.315c.128-.146.255-.292.376-.441.096-.12.186-.242.276-.364l.243-.324c.111-.145.222-.292.326-.44.092-.132.177-.265.262-.4l.211-.325c.098-.148.196-.297.286-.449l.016-.026.02.123.043.246c.014.083.03.165.042.248.031.204.06.41.088.617l.053.38c.038.301.073.605.104.91h-.001Zm-38.41 4.521c.009.543.026 1.098.05 1.65.003.086.008.173.014.26l.012.195c.024.501.05 1.006.09 1.519.01.146.024.295.038.444l.042.489c.03.362.06.724.098 1.093.017.17.038.341.058.512l.046.396a23.868 23.868 0 0 1-7.628-11.08c.031-.303.065-.607.104-.91l.054-.386c.027-.204.056-.409.087-.61l.042-.246.041-.244.021-.128.014.025c.096.159.197.314.3.47l.213.33c.08.125.16.25.245.373.112.161.232.319.353.476l.237.316c.083.112.166.226.255.336.13.163.27.321.41.48l.262.305c.085.1.17.2.259.297.154.168.317.33.48.493l.274.279c.085.087.17.175.258.26.204.195.42.383.635.572l.233.208c.073.066.145.132.22.197.379.317.77.626 1.163.917.062.045.125.089.19.132l.171.119c.217.155.435.31.658.461h.002Zm15.1-9.222v12.734l-.243-.005c-.094 0-.187-.002-.28-.005a15.385 15.385 0 0 1-.409-.02l-.329-.018-.267-.014a20.04 20.04 0 0 1-.412-.034l-.31-.028c-.093-.007-.183-.014-.274-.023-.142-.015-.283-.033-.424-.05l-.305-.038a7.897 7.897 0 0 1-.256-.031c-.159-.022-.317-.048-.474-.073l-.268-.043a6.946 6.946 0 0 1-.233-.037c-.173-.03-.344-.064-.516-.098l-.448-.086c-.194-.04-.386-.087-.58-.132l-.37-.086c-.246-.06-.49-.128-.732-.195l-.207-.055a26.484 26.484 0 0 1-3.618-1.324l-.06.098-.035-.017.047-.105a24.717 24.717 0 0 1-.815-.387l-.13-.068c-.24-.121-.48-.244-.716-.373l-.182-.103c-.216-.12-.433-.241-.645-.367l-.21-.13a32.612 32.612 0 0 1-.372-.23c-.002-.407.004-.81.01-1.212l.002-.308c.026-1.174.092-2.336.196-3.454.006-.065.014-.13.021-.194l.02-.176c.045-.432.089-.863.144-1.287.014-.105.03-.21.047-.314l.056-.379c.045-.307.089-.616.14-.917.021-.123.045-.243.069-.363l.085-.45c.047-.252.094-.503.146-.75.027-.129.058-.255.088-.38l.11-.47c.051-.223.101-.445.158-.663.034-.131.071-.26.108-.39l.123-.434.003-.014c.048.031.096.062.144.091.093.058.189.113.284.169l.205.12c.08.048.16.095.242.14.097.054.196.107.294.159l.22.116c.08.042.159.085.24.126.101.051.205.1.31.15l.229.11a10.302 10.302 0 0 0 .556.252l.235.102a10.041 10.041 0 0 0 .586.239l.236.091.24.093c.117.043.236.083.355.123l.24.083c.081.029.162.057.243.083.121.039.245.076.367.113l.255.078.233.07c.167.047.338.09.51.135l.36.095c.293.072.588.14.886.201l.163.032c.244.05.489.097.736.14.073.013.146.024.22.035l.245.038c.15.023.297.047.448.068.076.01.152.02.228.028l.256.03c.146.019.294.038.441.052.082.01.165.015.248.023l.268.023c.138.012.278.024.417.034.088.006.178.01.267.014l.274.014a15.729 15.729 0 0 0 .671.025l.195.003Zm1.554 12.724a9.949 9.949 0 0 1-.28.005l-.242.005V30.819l.193-.003.27-.005c.134-.005.267-.013.4-.02l.276-.014c.089-.005.179-.008.267-.014.14-.01.278-.022.417-.035l.279-.023.237-.021c.155-.016.31-.036.464-.055l.239-.03c.074-.008.148-.016.22-.027.152-.02.3-.044.449-.067l.244-.038a9.94 9.94 0 0 0 .222-.035c.247-.042.491-.09.736-.14l.164-.032c.298-.062.593-.129.886-.2l.352-.093c.174-.044.347-.09.518-.138.077-.022.152-.045.227-.068l.24-.072c.129-.039.26-.078.387-.12.08-.025.157-.052.236-.08l.242-.083c.121-.04.24-.082.36-.125.082-.03.162-.062.243-.094l.243-.094a13.405 13.405 0 0 0 .583-.238l.237-.102a10.703 10.703 0 0 0 .555-.253l.232-.112a11.673 11.673 0 0 0 .545-.275l.214-.113c.099-.052.198-.104.295-.158.08-.045.16-.093.239-.14l.207-.121c.095-.056.19-.111.284-.169l.144-.091.002.01.124.437.037.128.038.13.033.131c.057.224.11.452.162.68l.107.453c.03.127.06.253.088.381.052.245.099.495.145.745l.086.455c.024.12.048.241.069.363.05.293.093.593.136.892l.06.406c.017.104.033.206.046.31.056.424.1.856.144 1.288l.02.175.022.195c.104 1.117.17 2.28.196 3.455l.002.306c.007.403.011.807.01 1.214-.124.078-.248.153-.373.23l-.21.13c-.208.124-.42.243-.634.361l-.192.11c-.226.123-.455.24-.684.356l-.162.084c-.26.13-.524.254-.79.375l-.045.021c-.897.406-1.802.756-2.718 1.054l-.159.049c-.256.08-.51.16-.767.234l-.364.098c-.19.052-.382.105-.574.152a9.033 9.033 0 0 1-.219.05l-.265.061c-.156.037-.311.074-.468.107-.08.017-.16.032-.24.047l-.284.055c-.147.029-.293.058-.44.083-.085.015-.17.028-.255.04l-.303.049c-.139.022-.278.045-.417.064-.093.013-.186.024-.279.034l-.3.036c-.135.018-.27.035-.406.049-.096.01-.192.017-.287.025l-.314.028c-.132.011-.263.024-.395.032-.091.007-.183.011-.275.015l-.316.017c-.138.008-.276.016-.415.02l-.001.002Zm15.012-5.067c-.108.08-.219.155-.33.232l-.108.074v-.274c-.002-.207-.002-.414-.007-.617-.004-.212-.014-.42-.024-.628l-.022-.564a30.936 30.936 0 0 0-.025-.586 28.384 28.384 0 0 0-.05-.69l-.04-.522c-.013-.176-.025-.351-.04-.523-.026-.278-.059-.551-.091-.824l-.054-.474c-.014-.131-.029-.264-.045-.393a42.79 42.79 0 0 0-.213-1.407l-.036-.241a39.266 39.266 0 0 0-.308-1.606l-.036-.15a35.867 35.867 0 0 0-.332-1.403c-.022-.087-.047-.171-.072-.257l-.082-.292a34.658 34.658 0 0 0-.17-.615l.084-.063.22-.16c.067-.048.133-.095.197-.144.201-.154.392-.314.584-.474l.062-.05.1-.082c.239-.205.47-.417.692-.633.053-.05.103-.104.154-.157l.16-.165a6.811 6.811 0 0 0 .498-.538l.167-.193c.085-.1.17-.197.251-.298.058-.073.114-.148.169-.222l.156-.209c.07-.092.14-.185.206-.28.056-.081.11-.163.161-.246l.136-.21c.06-.092.12-.183.176-.277l.029-.05.113.161c.07.098.139.195.205.296.107.162.207.328.309.494l.213.346c.062.099.123.197.182.297.102.175.197.353.292.532l.192.354c.055.098.11.197.16.297.093.182.18.368.268.555l.18.376c.047.1.095.197.14.297.087.196.169.396.25.597l.155.375c.042.1.084.199.123.3.086.22.163.446.241.67l.132.376c.033.089.066.178.095.269.146.444.283.898.406 1.35.023.085.044.172.064.259l.084.336c.054.21.109.42.159.632a20.7 20.7 0 0 1-.419.759 3.49 3.49 0 0 0-.069.126c-.02.039-.04.078-.063.116a18.97 18.97 0 0 1-.718 1.12c-.05.072-.105.143-.159.215l-.222.3c-.137.19-.274.38-.422.563-.074.094-.154.184-.232.274l-.291.341c-.118.141-.237.283-.362.42-.087.095-.178.186-.268.278l-.324.331a12.71 12.71 0 0 1-.374.38c-.095.09-.196.18-.295.267l-.34.306c-.134.123-.268.245-.408.364-.102.087-.21.17-.316.252l-.356.283c-.145.117-.29.234-.442.347ZM15.05 26.716c-.06.207-.117.418-.173.628l-.079.278c-.024.085-.05.17-.071.257-.12.46-.229.93-.333 1.403l-.035.149a40.39 40.39 0 0 0-.31 1.607l-.035.24c-.077.464-.15.93-.213 1.407-.017.128-.03.26-.045.39l-.055.478c-.032.273-.064.545-.09.823-.016.169-.028.34-.04.51l-.042.548c-.018.225-.036.449-.049.677-.011.193-.019.39-.025.587l-.022.553c-.01.211-.02.423-.024.638-.005.203-.005.41-.006.617v.274l-.107-.073c-.111-.077-.223-.153-.33-.233-.158-.116-.309-.239-.46-.36l-.346-.275c-.105-.082-.21-.163-.31-.248-.153-.129-.298-.263-.445-.396l-.32-.29c-.094-.082-.188-.165-.277-.25-.151-.145-.295-.296-.439-.446l-.296-.305c-.077-.078-.156-.156-.23-.237-.173-.19-.336-.385-.499-.58l-.225-.264a6.507 6.507 0 0 1-.162-.19c-.256-.32-.495-.651-.673-.904l-.071-.096a2.149 2.149 0 0 1-.058-.079 18.95 18.95 0 0 1-.72-1.122l-.048-.087c-.187-.32-.353-.621-.502-.913.05-.21.102-.416.156-.623l.086-.348c.02-.086.042-.172.065-.257.124-.454.26-.91.406-1.352.028-.087.06-.173.092-.258l.122-.346c.082-.238.164-.476.254-.709.04-.103.082-.203.126-.303l.157-.382c.08-.196.16-.393.246-.586.046-.105.097-.207.146-.31l.174-.364c.087-.186.173-.373.267-.554.052-.103.107-.202.163-.302l.2-.367c.092-.172.184-.345.281-.514.062-.105.126-.207.19-.31l.218-.352c.097-.16.194-.319.296-.475.071-.109.146-.214.221-.32l.097-.139.028.049c.065.108.133.213.204.32l.129.198a6.08 6.08 0 0 0 .405.573l.127.17c.045.06.09.121.138.181.115.145.239.285.361.426l.106.124c.04.046.079.093.121.139.166.183.341.36.52.537l.122.126a16.173 16.173 0 0 0 1.441 1.243c.058.044.118.087.178.129l.204.149.118.087v.004ZM5.8 31.569c-.095.435-.185.903-.268 1.391a23.874 23.874 0 0 1-.441-3.062l.07.183.096.256c.067.168.139.334.211.5l.085.2c.08.177.162.355.248.533l-.001-.001Zm47.143-1.671a23.892 23.892 0 0 1-.443 3.062 32.72 32.72 0 0 0-.267-1.391c.086-.177.168-.356.249-.534l.087-.205c.07-.163.141-.326.206-.492l.103-.27.065-.17Zm-.04-4.211c-.082.703-.21 1.409-.383 2.102l-.027.099c-.051.198-.105.397-.163.595l-.066.208c-.05.16-.1.32-.155.48l-.095.26c-.056.156-.105.29-.157.425l-.027.068-.014-.052c-.053-.193-.112-.382-.17-.573l-.12-.396a15.864 15.864 0 0 0-.131-.427c-.066-.198-.136-.39-.207-.584l-.136-.38c-.047-.131-.093-.264-.143-.392-.08-.205-.165-.406-.25-.606l-.153-.365c-.048-.116-.095-.231-.146-.344-.098-.219-.203-.431-.306-.645l-.16-.33c-.047-.099-.094-.199-.144-.296-.145-.28-.299-.555-.453-.83l-.104-.189a5.78 5.78 0 0 0-.115-.207c-.233-.4-.478-.795-.73-1.177a8.354 8.354 0 0 0-.215-.308l-.24-.345-.17-.246c.046-.097.092-.195.134-.293.019-.043.035-.086.052-.13l.053-.132c.04-.1.081-.2.117-.3.016-.045.03-.089.044-.133l.044-.13a7.92 7.92 0 0 0 .101-.306l.04-.145.04-.146a5.46 5.46 0 0 0 .11-.443l.032-.159a4.215 4.215 0 0 0 .08-.44l.027-.174c.011-.075.024-.151.033-.226.01-.08.015-.16.022-.24l.014-.173c.007-.058.012-.115.016-.173a9.966 9.966 0 0 0-.017-1.397 4.547 4.547 0 0 0-.021-.186l-.013-.094c-.022-.202-.04-.364-.067-.527a4.387 4.387 0 0 0-.04-.208l.121.099c.054.043.109.087.162.132.148.126.293.257.438.388l.225.2c.202.187.4.379.595.574a23.765 23.765 0 0 1 2.838 9.221v-.004ZM10.31 21.232c-.058.082-.114.165-.17.247l-.244.35c-.071.1-.143.2-.21.303-.251.379-.496.775-.73 1.176-.043.072-.083.146-.122.22l-.112.205c-.15.265-.3.53-.439.803a8.32 8.32 0 0 0-.143.296l-.16.33c-.105.214-.209.427-.307.645-.05.113-.098.228-.145.344l-.158.375c-.084.197-.168.394-.245.595-.05.127-.095.256-.14.386l-.14.388c-.07.193-.14.385-.205.582-.047.14-.09.285-.132.43l-.122.4c-.058.188-.116.376-.168.566l-.015.051-.029-.07c-.04-.104-.079-.21-.117-.316l-.065-.18a11.732 11.732 0 0 1-.179-.532l-.055-.171-.057-.183c-.034-.114-.064-.23-.095-.344l-.05-.187c-.016-.056-.032-.113-.046-.169a12.44 12.44 0 0 1-.08-.35l-.08-.359c-.03-.143-.055-.289-.08-.434l-.05-.278a17.125 17.125 0 0 1-.092-.669 23.724 23.724 0 0 1 2.839-9.215c.195-.196.393-.387.594-.574l.2-.177c.154-.139.307-.277.463-.41l.17-.14.113-.09c-.014.068-.029.138-.04.207a9.423 9.423 0 0 0-.061.468l-.02.157a4.29 4.29 0 0 0-.02.182 9.781 9.781 0 0 0-.017 1.398c.002.053.007.105.013.157l.014.16c.007.09.014.18.025.268.008.073.02.144.03.215l.026.17a5.097 5.097 0 0 0 .084.46l.032.156c.01.053.022.107.034.16.023.093.048.186.074.277l.041.152c.013.049.025.096.04.145.03.098.063.195.096.292l.047.139c.015.046.03.092.047.138.036.1.077.201.118.302l.053.131c.016.043.033.087.052.13.042.098.087.195.133.293h.002Zm31.46 5.062-.058.037-.302.194c-.13.08-.262.157-.395.234l-.298.175c-.15.083-.304.165-.458.245l-.259.137c-.182.093-.37.181-.557.27l-.182.087c-.214.098-.432.19-.65.283l-.112.048a23.122 23.122 0 0 1-4.1 1.248l-.157.03c-.235.047-.47.093-.707.134l-.249.04c-.231.036-.428.069-.63.096l-.368.045c-.174.022-.348.043-.522.062l-.429.037a20.38 20.38 0 0 1-.47.039l-.502.026a15.038 15.038 0 0 1-.655.025l-.177.003v-9.936l.07-.003.359-.012c.105-.003.21-.006.314-.012.208-.013.413-.034.618-.055l.305-.03c.093-.008.187-.015.279-.027.255-.032.505-.075.753-.117l.202-.032c.072-.01.144-.021.214-.035.383-.073.762-.159 1.127-.255a2.4 2.4 0 0 0 .126-.037l.074-.023c.298-.082.594-.167.881-.264.087-.029.17-.061.253-.094l.267-.1c.172-.064.344-.127.51-.197.091-.039.178-.081.265-.123l.27-.127a5.121 5.121 0 0 0 .698-.359l.255-.147.193.25c.105.136.21.27.31.41.07.097.139.197.206.297l.237.344c.09.129.18.258.267.391.071.11.14.223.208.336l.227.369c.077.124.156.248.23.375.074.128.145.26.216.391l.214.39c.064.114.128.228.189.345.197.38.39.773.572 1.168.044.096.086.195.128.293l.166.382c.08.178.158.356.233.539.047.114.09.23.133.346l.162.421c.063.162.127.324.186.491.043.123.084.248.125.373l.144.43.05.151v-.002ZM28.5 19.853v9.936l-.176-.003-.25-.005c-.137-.005-.27-.013-.405-.02l-.504-.026c-.158-.01-.315-.026-.473-.04l-.426-.037c-.176-.018-.35-.04-.524-.062l-.367-.044c-.2-.027-.4-.06-.6-.092l-.278-.044a24.247 24.247 0 0 1-.712-.135l-.152-.03a23.12 23.12 0 0 1-4.098-1.248l-.1-.042a20.971 20.971 0 0 1-.662-.288l-.18-.087a17.92 17.92 0 0 1-.56-.27l-.266-.142c-.152-.08-.302-.157-.45-.24l-.292-.172c-.134-.077-.27-.155-.4-.237l-.298-.191-.063-.04.046-.135.142-.426c.043-.132.086-.264.132-.393.06-.17.125-.336.19-.502l.157-.411c.043-.116.086-.231.132-.344.077-.188.158-.371.24-.555l.162-.373c.042-.097.082-.194.126-.288.184-.398.376-.79.572-1.166.061-.119.126-.234.191-.35l.21-.381c.071-.133.144-.266.219-.395.074-.128.152-.252.23-.376l.225-.364c.068-.114.138-.228.21-.34.085-.13.174-.257.263-.384l.234-.34c.07-.103.14-.207.213-.308.099-.136.201-.267.303-.399l.2-.26.257.148c.086.05.172.102.262.149.141.074.288.14.436.208l.271.127c.087.043.174.085.265.123.164.07.334.132.505.195l.276.104c.082.033.163.064.248.093.287.097.583.183.881.265l.073.022c.042.013.083.026.126.037.366.096.745.182 1.127.255.072.014.145.025.22.035l.21.034c.244.041.49.083.739.114.092.012.185.02.278.028l.304.029c.205.02.41.042.62.055.103.006.207.01.313.012l.36.012.068.004Zm-8.713-2.609-.075.1-.215.282c-.058.075-.116.15-.171.226-.141.194-.276.394-.411.593l-.171.25a8.471 8.471 0 0 0-.158.232c-.15.232-.294.47-.44.709l-.128.21a7.62 7.62 0 0 0-.124.203c-.221.38-.437.772-.643 1.167l-.101.207c-.169.33-.335.664-.493 1.004-.04.087-.079.177-.116.266l-.13.296c-.102.23-.204.46-.3.695-.041.102-.081.207-.12.312l-.127.33c-.085.217-.17.435-.25.658-.037.107-.073.216-.109.325l-.124.37-.023-.017c-.065-.047-.13-.093-.194-.142-.102-.078-.2-.16-.299-.241l-.214-.175a6.242 6.242 0 0 1-.186-.153c-.097-.084-.19-.17-.282-.257l-.205-.189c-.055-.049-.11-.1-.163-.15-.1-.098-.195-.198-.29-.298l-.178-.186-.13-.135c-.156-.171-.301-.346-.445-.522l-.101-.118a12.574 12.574 0 0 1-.49-.658c-.023-.033-.043-.066-.064-.1l-.094-.146a10.58 10.58 0 0 1-.275-.43 4.013 4.013 0 0 1-.08-.145l-.107-.194-.046-.084.086-.11.237-.302c.07-.091.14-.182.214-.271.077-.095.158-.186.239-.278l.26-.302c.09-.104.178-.208.27-.31.062-.068.127-.134.19-.2l.13-.135a24.41 24.41 0 0 1 1.059-1.056l.127-.123c.052-.05.105-.101.16-.15.11-.101.225-.199.338-.296l.302-.26c.086-.075.171-.15.26-.223.108-.09.22-.176.33-.263l.317-.248c.097-.078.195-.156.295-.23.11-.084.225-.164.338-.244l.322-.23c.107-.077.214-.154.324-.23.117-.079.237-.155.357-.232l.28-.18c.07.094.142.188.216.28.202.243.392.448.587.64a8.712 8.712 0 0 0 1.034.858Zm23.078 8.278c-.06.045-.12.088-.181.132l-.033.025-.012-.033-.123-.364c-.032-.099-.064-.198-.1-.295-.097-.274-.202-.542-.307-.81l-.095-.247c-.03-.081-.06-.163-.094-.242-.134-.33-.277-.652-.422-.973l-.05-.114a5.758 5.758 0 0 0-.073-.168c-.38-.821-.797-1.624-1.24-2.384a3.443 3.443 0 0 0-.082-.134l-.056-.091c-.181-.303-.363-.604-.553-.896a6.407 6.407 0 0 0-.142-.208l-.148-.216c-.148-.22-.295-.439-.45-.651a7.06 7.06 0 0 0-.17-.223l-.21-.276-.081-.11a9.293 9.293 0 0 0 1.03-.857l.005-.004a7.665 7.665 0 0 0 .801-.918l.288.186c.117.075.235.15.35.229.12.082.238.167.355.252l.328.234c.102.072.202.143.3.216.118.088.232.18.346.27l.31.245c.097.075.193.15.288.228.11.091.218.186.326.28l.306.265c.09.078.18.155.268.234.114.104.225.212.337.32l.134.13c.283.271.56.547.827.83l.142.147c.075.078.152.157.225.238.088.097.174.197.26.298l.264.306c.083.094.166.188.245.285.073.09.145.182.215.274l.24.304.083.105-.033.057-.113.208c-.029.053-.057.107-.088.159-.065.111-.137.22-.21.329l-.132.205c-.029.048-.059.096-.091.141-.154.222-.317.441-.489.657l-.132.155c-.135.164-.27.327-.414.485-.04.044-.082.087-.123.13l-.175.18c-.098.104-.196.208-.3.31-.049.047-.1.092-.15.138l-.193.177c-.102.094-.202.189-.308.28a6.18 6.18 0 0 1-.168.138l-.204.167c-.108.09-.215.179-.328.265Zm-25.449-10.94-.004.002-.338.219c-.114.073-.229.145-.339.221-.14.096-.278.196-.416.296l-.304.217c-.1.07-.202.142-.3.215-.152.114-.299.232-.446.349l-.136.108a26.5 26.5 0 0 0-.819.678l-.145.123a11.695 11.695 0 0 0-.664.6l-.273.26c-.105.1-.212.2-.314.302-.102.101-.201.206-.3.311l-.26.272a11.526 11.526 0 0 0-.574.632l-.237.274c-.092.106-.185.211-.274.32-.085.102-.166.207-.248.311l-.05-.13a5.183 5.183 0 0 1-.133-.371l-.049-.147a4.835 4.835 0 0 1-.047-.146c-.022-.072-.04-.145-.06-.219l-.041-.155a4.522 4.522 0 0 1-.083-.355l-.036-.171a5.584 5.584 0 0 1-.063-.37l-.04-.284c-.012-.097-.02-.197-.028-.296l-.02-.226a8.668 8.668 0 0 1 .016-1.267l.01-.08.013-.102c.02-.187.04-.374.072-.56.008-.047.02-.095.03-.143l.044-.21c.025-.13.05-.258.083-.387.02-.082.046-.163.071-.245l.077-.257.024-.084c.086-.057.172-.114.26-.17l.214-.14c.086-.057.173-.114.26-.169.249-.154.5-.304.756-.446.056-.032.114-.06.17-.09l.234-.124c.15-.08.298-.16.45-.235.06-.03.124-.059.189-.088l.253-.118c.144-.069.288-.137.434-.201l.217-.089.268-.11c.138-.057.276-.114.416-.167.076-.029.152-.055.23-.082l.277-.098c.138-.05.277-.1.418-.144.08-.027.165-.051.247-.075l.276-.082c.14-.043.28-.086.423-.125l.145-.037a.745.745 0 0 0-.013.061c-.021.106-.035.213-.05.319a4.72 4.72 0 0 0 .005 1.32c.009.058.022.115.036.172l.027.13c.025.129.05.256.088.383.02.068.046.135.071.202l.06.165c.035.102.07.202.116.303.031.07.068.139.105.207l.012.022h.007Zm29.796-.494.022.075.077.26c.026.085.052.168.073.251.032.124.056.247.08.37l.047.221c.011.05.022.099.03.148.03.171.047.343.066.515l.016.129c.006.033.01.067.013.1a8.705 8.705 0 0 1 .016 1.266l-.022.25c-.007.09-.014.182-.024.272a6.79 6.79 0 0 1-.018.124l-.024.166c-.01.076-.02.154-.035.23l-.062.301c-.014.073-.029.145-.046.217-.011.049-.025.097-.038.146l-.042.153c-.018.072-.037.144-.058.214-.015.05-.032.1-.048.148l-.049.15a9.952 9.952 0 0 1-.071.215l-.058.149-.052.133a11.77 11.77 0 0 0-.516-.624l-.236-.273a13.26 13.26 0 0 0-.296-.338c-.092-.101-.187-.2-.283-.3l-.256-.267c-.1-.106-.202-.214-.306-.318-.1-.1-.205-.198-.31-.296l-.28-.268c-.1-.095-.198-.19-.3-.283-.117-.107-.238-.21-.36-.314l-.145-.124a25.483 25.483 0 0 0-.835-.69l-.153-.122c-.137-.108-.273-.217-.413-.322-.1-.075-.203-.148-.305-.22l-.311-.222a12.456 12.456 0 0 0-.742-.507l-.33-.215-.013-.008.01-.019c.038-.07.076-.14.108-.211.044-.099.08-.2.115-.302l.061-.165c.026-.067.051-.134.072-.2.037-.128.061-.254.086-.38l.03-.136c.012-.056.026-.112.034-.17a4.911 4.911 0 0 0 .028-1.17 1.898 1.898 0 0 0-.015-.112l-.115.005-.004-.025-.003-.015.113-.018a4.65 4.65 0 0 0-.061-.368c.05.012.099.024.147.039.13.035.259.075.387.113l.285.086a10.736 10.736 0 0 1 .647.213l.295.103c.085.03.172.06.256.091.127.049.252.1.376.152l.286.116.24.099c.134.06.267.123.4.185l.267.125c.07.031.14.063.208.097.163.08.323.167.482.253l.213.112c.053.027.106.054.158.083.28.156.555.319.826.488.053.033.104.068.155.102l.205.135c.103.066.205.132.306.2v.002ZM36.715 16.99l-.11.064a5.66 5.66 0 0 1-.24.138 7.3 7.3 0 0 1-.363.172l-.294.139c-.078.038-.157.076-.239.11a9.284 9.284 0 0 1-.45.174l-.289.11c-.071.027-.143.056-.217.08-.241.082-.492.152-.742.222l-.133.04a2.042 2.042 0 0 1-.135.04c-.347.091-.704.172-1.06.24l-.182.028c-.303.054-.608.106-.92.144-.07.01-.14.015-.21.02l-.287.028c-.212.022-.424.044-.64.058-.086.005-.173.007-.26.01l-.314.01-.1.005v-7.32l.05.021.099.045.265.12.157.077.273.134.194.102c.096.05.192.1.292.156l.228.128c.1.057.203.116.31.179l.251.153a17.38 17.38 0 0 1 .95.624 21.374 21.374 0 0 1 .653.475c.1.076.2.15.301.23.125.099.253.204.38.31l.065.053.241.2c.12.103.24.211.361.32l.131.118c.07.062.14.125.21.19.13.121.26.25.39.378l.151.147c.057.055.115.11.172.17.176.177.35.368.526.56l.086.092.105.111c.115.128.23.26.343.394ZM28.5 11.503v7.317l-.1-.004-.314-.01c-.087-.003-.175-.004-.261-.01-.21-.013-.417-.034-.622-.056l-.299-.03c-.072-.005-.145-.012-.216-.02a16.746 16.746 0 0 1-.883-.14l-.218-.034a16.711 16.711 0 0 1-1.06-.239 3.11 3.11 0 0 1-.16-.048l-.21-.062c-.216-.061-.432-.122-.64-.193a4.555 4.555 0 0 1-.228-.085l-.299-.113c-.144-.053-.29-.106-.43-.166-.085-.036-.167-.076-.249-.115l-.288-.136a8.367 8.367 0 0 1-.359-.171c-.084-.043-.162-.09-.242-.138l-.107-.063c.114-.134.228-.264.342-.393.036-.04.073-.079.11-.117l.092-.098c.172-.188.344-.374.515-.55.062-.063.124-.123.186-.183l.165-.161a13.028 13.028 0 0 1 .568-.537l.138-.125c.12-.107.239-.215.357-.315.088-.076.175-.147.262-.218l.048-.039c.127-.105.253-.208.377-.306.095-.075.189-.145.283-.217a22.651 22.651 0 0 1 1.294-.907c.11-.07.218-.14.325-.205l.256-.155a15.1 15.1 0 0 1 .306-.177l.23-.13.286-.153.2-.104c.094-.049.182-.09.27-.133l.157-.077c.094-.044.179-.082.262-.119l.105-.048.05-.02.001.003Zm10.693 3.413-.04.056c-.028.04-.056.082-.087.122-.113.14-.244.272-.373.405a3.61 3.61 0 0 0-.078.086c-.02.022-.039.045-.062.066-.185.18-.389.357-.606.528-.04.032-.082.06-.124.09l-.163.116-.065.048c-.14-.165-.279-.324-.419-.481l-.198-.217c-.173-.19-.346-.375-.519-.553-.081-.084-.162-.165-.243-.246a22.252 22.252 0 0 0-.49-.475l-.226-.212a22.386 22.386 0 0 0-.602-.531l-.092-.082c-.23-.193-.456-.376-.68-.55l-.197-.15a25.13 25.13 0 0 0-.468-.347l-.225-.16a25.261 25.261 0 0 0-.428-.292l-.004-.003c.214.065.392.12.574.18l.065.022c.2.065.405.136.613.208l.127.045c.211.076.425.154.644.237l.058-.1.052.02-.04.108c.208.08.42.164.635.253l.101.041c.226.094.454.192.684.295l.129.058a28.9 28.9 0 0 1 1.452.703l.129.066c.24.127.481.257.724.394l.115.066c.11.062.219.125.328.19v-.004Zm-13.965-2.783-.008.006c-.138.091-.278.186-.421.287l-.23.163c-.152.11-.306.225-.463.344l-.202.153c-.224.175-.448.357-.677.55l-.1.086c-.196.168-.395.343-.595.526l-.228.214a24.354 24.354 0 0 0-1.252 1.273l-.2.217c-.138.157-.278.316-.417.481l-.067-.05-.164-.116a2.602 2.602 0 0 1-.122-.088 7.867 7.867 0 0 1-.607-.53.51.51 0 0 1-.043-.046 1.404 1.404 0 0 0-.068-.075 6.308 6.308 0 0 1-.4-.437 1.77 1.77 0 0 1-.08-.11l-.048-.066c.112-.065.22-.128.33-.19l.115-.066c.241-.136.483-.266.723-.393l.097-.05c.51-.265.999-.501 1.484-.719l.13-.058c.23-.102.458-.201.683-.294l.064-.026c.252-.103.463-.188.671-.267l-.023-.114.054-.02.04.107c.218-.083.432-.162.642-.237l.13-.047c.207-.072.412-.142.61-.207l-.025-.112.052-.016.04.106c.187-.06.369-.117.546-.17l.028-.01v.001Zm14.698-1.107.01.03c.015.038.029.075.04.113.012.038.021.078.031.118l.037.147c.01.037.02.074.028.111.011.057.019.115.026.171l.02.133c.005.026.01.05.012.076a3.73 3.73 0 0 1-.021.928.863.863 0 0 1-.019.086c-.009.035-.017.07-.024.106l-.012.064c-.019.095-.036.192-.065.286-.012.042-.029.084-.045.125l-.072.196c-.025.072-.05.145-.082.217a1.33 1.33 0 0 1-.053.107c-.14-.082-.278-.163-.417-.24l-.11-.064a28.346 28.346 0 0 0-.781-.421l-.16-.083c-.254-.13-.507-.257-.757-.377l-.144-.068a28.782 28.782 0 0 0-1.535-.673l-.138-.057a28.334 28.334 0 0 0-.692-.268l-.156-.058a31.554 31.554 0 0 0-.663-.236l-.118-.04c-.21-.07-.415-.138-.615-.202l-.066-.02a27.85 27.85 0 0 0-.618-.187l-.12-.035a35.438 35.438 0 0 0-.56-.155l-.107-.029-.262-.068.17-.02.142-.018c.167-.02.34-.04.52-.056l.147-.013c.188-.018.38-.034.58-.048l.1-.006c.187-.012.378-.023.574-.03l.135-.007c.211-.008.428-.013.65-.016l.169-.002c.223-.001.45 0 .681.005l.158.003c.24.007.482.015.73.029l.024-.113.053.002-.006.114c.243.014.49.033.74.055l.153.013c.254.024.51.053.77.087l.172.022c.265.037.531.076.8.122l.13.024c.205.036.41.076.617.118l-.001.002Zm-13.613-.265-.255.066-.122.032c-.176.047-.36.098-.55.152l-.13.038c-.197.057-.398.118-.607.183l-.058.019c-.217.068-.419.135-.625.204l-.122.042c-.215.074-.436.152-.66.235l-.159.06c-.226.084-.456.173-.69.266l-.138.057c-.241.098-.484.199-.731.307l-.044.02c-.248.108-.503.226-.76.347l-.143.068c-.25.12-.504.245-.758.377l-.127.065c-.292.152-.553.293-.815.439l-.108.062c-.14.078-.278.158-.418.24a1.364 1.364 0 0 1-.053-.107c-.032-.072-.057-.145-.082-.218l-.072-.194a1.336 1.336 0 0 1-.046-.125c-.027-.094-.045-.19-.063-.285l-.014-.066a2.552 2.552 0 0 0-.023-.107 1.004 1.004 0 0 1-.019-.085 3.85 3.85 0 0 1-.02-.929l.012-.08.02-.136c.008-.054.015-.108.026-.162.008-.038.018-.075.028-.113l.037-.144c.01-.04.019-.08.031-.12.013-.04.028-.079.042-.118l.008-.024c.22-.045.425-.084.627-.12l.114-.021c.276-.048.549-.089.82-.126l.144-.019c.27-.034.538-.065.801-.09l.06-.005a24.648 24.648 0 0 1 1.663-.096l.019-.114.062-.002.003.114c.254-.005.503-.006.745-.005h.093a27.932 27.932 0 0 1 2.133.114l.025-.112.041.004-.01.114c.206.019.405.041.598.064l.026-.112.038.004-.013.113.221.027-.002.002Zm21.763 2.655.026.034-.018-.013-.008-.02Zm-38.128.021-.019.014.026-.034-.008.021h.001Zm29.73-6.941c1.599.794 3.11 1.77 4.498 2.901a13.756 13.756 0 0 1 .965 1.032l.111.14c.11.132.218.266.321.403l.138.193c.103.142.18.25.255.36.032.048.06.096.09.143l.09.143c.058.093.117.185.172.279.033.058.065.116.096.175l.077.143.012.022-.051-.03c-.097-.058-.194-.115-.291-.169-.122-.067-.245-.13-.369-.195l-.25-.13a12.075 12.075 0 0 0-.666-.324l-.255-.117c-.09-.043-.182-.085-.274-.125-.14-.06-.28-.116-.42-.171l-.26-.104a13.409 13.409 0 0 0-.264-.106c-.164-.062-.332-.118-.499-.176l-.246-.085c-.074-.026-.147-.052-.222-.076a21.877 21.877 0 0 0-1.15-.332l-.098-.025c-.18-.047-.349-.09-.515-.13a6.577 6.577 0 0 1-.058-.112l-.055-.11a1.652 1.652 0 0 0-.066-.131 6.2 6.2 0 0 0-.362-.565c-.006-.01-.024-.032-.031-.041a6.809 6.809 0 0 0-.4-.5 2.718 2.718 0 0 0-.098-.105l-.05-.051a8.193 8.193 0 0 0-.347-.36c-.044-.041-.091-.082-.138-.122l-.118-.104c-.098-.088-.195-.175-.3-.26a3.804 3.804 0 0 0-.173-.13l-.136-.101c-.1-.076-.2-.152-.307-.225-.065-.044-.13-.086-.198-.128l-.152-.097-.045-.03.227-.062.205-.057c.058-.017.116-.034.174-.048.205-.053.408-.097.61-.14l.19-.044c.213-.043.423-.082.63-.115l.003-.001Zm-22.321 3.637a28.35 28.35 0 0 0-.552.14l-.267.068c-.319.086-.634.18-.945.28-.066.02-.13.043-.194.066l-.211.073c-.189.065-.377.128-.562.198-.077.029-.154.06-.23.092l-.25.1c-.155.062-.31.123-.465.19-.084.036-.166.075-.249.113l-.236.108c-.145.066-.292.132-.435.203-.086.042-.17.087-.256.132l-.231.12a9.774 9.774 0 0 0-.672.369l-.074.043.02-.036.069-.127c.032-.06.063-.118.097-.176.051-.087.106-.174.16-.26l.095-.15c.032-.053.064-.106.099-.157.057-.086.12-.173.18-.258l.112-.158c.033-.047.066-.093.1-.138.076-.1.156-.2.236-.298l.103-.128c.031-.04.062-.079.095-.118.103-.121.211-.24.32-.36l.153-.171c.165-.175.336-.349.514-.519a24.12 24.12 0 0 1 4.47-2.878c.208.034.418.072.63.115l.222.051c.192.042.385.084.579.133.066.017.132.036.198.055l.22.062.19.052-.034.02-.156.1c-.07.044-.14.088-.208.135-.1.067-.194.139-.288.211l-.149.111a3.47 3.47 0 0 0-.177.135 6.054 6.054 0 0 0-.276.238l-.136.12c-.05.042-.099.084-.145.128-.11.106-.211.214-.313.323l-.079.083c-.035.037-.07.072-.102.109a7.008 7.008 0 0 0-.401.503l-.03.038a6.371 6.371 0 0 0-.361.565 1.852 1.852 0 0 0-.066.133l-.057.113-.056.107v-.002Zm18.966-2.738c.14.072.277.148.412.225l.05.026c.229.132.432.26.626.392.034.023.066.048.1.073l.153.11c.102.074.205.147.301.224.04.032.077.064.113.097l.153.132c.078.066.156.133.229.2.04.038.078.078.115.118l.127.13c.066.066.132.132.192.2.037.04.07.084.105.126l.109.135a2.886 2.886 0 0 1 .214.282l-.336-.054-.103-.016a24.125 24.125 0 0 0-2.526-.25l-.105-.004a26.271 26.271 0 0 0-1.135-.026h-.046c-.354 0-.692.007-1.017.019l-2.587.223.557-.327.393-.221.125-.07c.18-.099.365-.198.554-.298l.129-.066c.15-.078.3-.155.454-.231l.206-.1c.134-.066.27-.131.407-.196l.209-.097c.161-.074.301-.135.443-.198l.23-.1c.155-.067.313-.131.472-.195l.193-.079c.16-.062.321-.124.483-.183l.001-.001ZM22.915 9.513c-.16 0-.323.002-.488.004l-.097.003a25.424 25.424 0 0 0-1.65.09l-.13.012c-.272.025-.548.055-.827.09l-.139.02c-.287.037-.576.08-.87.13h-.007l.056-.081c.045-.062.095-.122.144-.182l.118-.146c.036-.045.072-.09.11-.133.056-.063.117-.124.177-.185l.137-.139c.039-.041.079-.082.121-.122.07-.067.146-.131.222-.195l.154-.133a2.65 2.65 0 0 1 .119-.1 6.84 6.84 0 0 1 .334-.247l.126-.092c.03-.023.06-.046.093-.067a9.52 9.52 0 0 1 .61-.382c.162-.094.319-.18.477-.261.163.06.324.12.484.183l.195.079c.157.063.314.126.468.193l.239.103c.138.06.276.121.41.183l.237.11c.136.063.269.126.4.19l.214.106c.15.075.297.15.441.224l.142.072c.187.098.37.197.548.294l.143.08.378.213.556.327-.322-.041-.1-.012a27.078 27.078 0 0 0-.578-.062l-.056-.005a27.499 27.499 0 0 0-1.404-.096l-.085-.004a26.34 26.34 0 0 0-.714-.019l-.126-.001-.26-.001Zm3.384-3.54.067.119.062.113c.055.1.11.199.162.298l.896 1.845.448 1.044-.38-.24a33.916 33.916 0 0 0-.389-.237l-.065-.04a38.14 38.14 0 0 0-.497-.292l-.148-.084a44.014 44.014 0 0 0-.388-.219l-.203-.111a43.418 43.418 0 0 0-.37-.2l-.23-.12a31.3 31.3 0 0 0-.383-.193l-.246-.123c-.132-.065-.269-.13-.406-.195l-.243-.114c-.157-.072-.318-.143-.48-.214l-.191-.085c-.093-.04-.186-.08-.279-.118.196-.073.398-.138.601-.202l.284-.094c.078-.026.155-.053.235-.076.356-.103.723-.186 1.002-.248l.114-.028c.03-.008.06-.016.09-.022.3-.062.614-.118.935-.165l.002.002Zm8.696.836c-.094.038-.186.077-.278.117l-.196.086c-.16.07-.32.141-.478.214l-.243.113c-.138.065-.273.13-.407.195l-.246.123c-.128.065-.255.128-.379.193l-.23.12-.37.199-.204.111c-.132.073-.26.146-.386.218l-.15.085c-.17.1-.338.197-.496.292l-.055.034-.398.244-.38.239 1.126-2.469.217-.417c.055-.104.111-.207.169-.31l.056-.103.067-.12c.322.048.636.104.936.166l.085.021.114.029c.415.091.726.168 1.008.25.079.022.155.048.23.074l.274.09c.208.066.416.131.615.206h-.001Zm-4.371-.962c-.032.058-.062.113-.09.169l-.517 1.02-.194.41-.022.049-.166.365-.104.234V5.782c.23.006.455.016.672.03l.175.017c.082.006.164.012.245.02l.001-.002ZM28.5 5.78v2.312l-.106-.237-.163-.358-.024-.051a28.432 28.432 0 0 0-.194-.41l-.516-1.021-.09-.17.24-.018h.001l.18-.018c.216-.014.441-.023.671-.03l.001.001Zm9.584-.005a18.556 18.556 0 0 0-.782.214l-.234.067c-.225.07-.451.143-.678.22-.306-.144-.63-.281-.96-.407l-.054-.019c-.388-.147-.783-.28-1.172-.392a5.231 5.231 0 0 0-.27-.07l-.27-.067c-.248-.065-.497-.13-.753-.184-.112-.023-.226-.042-.34-.06l-.26-.044.053-.079.119-.174c.09-.128.179-.248.266-.361l.071-.086.022-.027c1.802.288 3.558.781 5.242 1.47ZM25.72 5.034l-.265.045a6.97 6.97 0 0 0-.335.059c-.263.055-.519.122-.775.19l-.256.064c-.088.02-.177.041-.261.066a15.81 15.81 0 0 0-1.195.4c-.358.136-.684.274-.993.42a19.53 19.53 0 0 0-.677-.22c-.05-.017-.1-.03-.15-.044l-.091-.025a19.01 19.01 0 0 0-.616-.174 6.004 6.004 0 0 0-.16-.039 23.817 23.817 0 0 1 5.243-1.469l.033.04.036.044c.11.14.2.26.29.388l.096.142.077.112h-.001Zm2.78-.282c-.198.006-.397.015-.595.026l-.154.005c-.306.02-.61.047-.912.08l-.134-.211-.027-.042c-.091-.139-.18-.273-.27-.399l-.045-.063a23.95 23.95 0 0 1 1.41-.115h.014c.236-.012.475-.021.713-.027v.746Zm3.169-.604-.046.064c-.086.122-.171.25-.258.382l-.04.059-.132.21c-.302-.033-.608-.06-.912-.08l-.153-.005a22.367 22.367 0 0 0-.597-.027v-.745c.238.006.477.015.713.026h.014c.463.025.935.063 1.41.116Z"/></g><defs><clipPath id="clip0_1_14"><path fill="#fff" transform="translate(.949)" d="M0 0h57v56H0z"/></clipPath></defs></svg>